# xmcd
#
# Track frame offsets: 
#        150
#        18602
#        45360
#        68310
#        90325
#        114400
#        135895
#        163117
#        181807
#        213762
#
# Disc length: 3284 seconds
#
# Revision: 0
# Processed by: cddbd v1.5.2PL0 Copyright (c) Steve Scherf et al.
# Submitted via: ExactAudioCopy v1.0b3
#
DISCID=6c0cd20a
DTITLE=Hong Hanh, Nguyen Huu Thiet - Tieng Hat Doi Tim
DYEAR=1995
DGENRE=
TTITLE0=Tieng hat doi tim
TTITLE1=Hong Hanh - Nang Xuan cua toi
TTITLE2=Hong Hanh - Neu em la
TTITLE3=Nguyen Huu Thiet - Canh hoa Xuan
TTITLE4=Hong Hanh - Gui nguoi toi yeu
TTITLE5=Hong Hanh - Tinh Xuan cho que huong
TTITLE6=Nguyen Huu Thiet - Tinh trao Xuan nu
TTITLE7=Hong Hanh - Hoa tinh yeu
TTITLE8=Hong Hanh - Yeu nhau di
TTITLE9=Hong Hanh - Hoa thuong nho ai
EXTD=
EXTT0=
EXTT1=
EXTT2=
EXTT3=
EXTT4=
EXTT5=
EXTT6=
EXTT7=
EXTT8=
EXTT9=
PLAYORDER=
